<svg width="32" height="32" viewBox="0 0 32 32" fill="none" xmlns="http://www.w3.org/2000/svg">
<path opacity="0.2" d="M2.99951 12.1055H28.9995L29.0002 23.9989C29.0002 24.2642 28.8949 24.5185 28.7074 24.706C28.5198 24.8936 28.2655 24.9989 28.0002 24.9989H4.00024C3.73503 24.9989 3.48067 24.8936 3.29314 24.706C3.1056 24.5185 3.00024 24.2642 3.00024 23.9989L2.99951 12.1055Z" fill="#23BD33"/>
<path d="M28 7H4C3.44772 7 3 7.44772 3 8V24C3 24.5523 3.44772 25 4 25H28C28.5523 25 29 24.5523 29 24V8C29 7.44772 28.5523 7 28 7Z" stroke="#23BD33" stroke-width="2" stroke-linecap="round" stroke-linejoin="round"/>
<path d="M20.9995 21H24.9995" stroke="#23BD33" stroke-width="2" stroke-linecap="round" stroke-linejoin="round"/>
<path d="M14.9995 21H16.9995" stroke="#23BD33" stroke-width="2" stroke-linecap="round" stroke-linejoin="round"/>
<path d="M2.99951 12.1055H28.9995" stroke="#23BD33" stroke-width="2" stroke-linecap="round" stroke-linejoin="round"/>
</svg>
