<svg width="32" height="32" viewBox="0 0 32 32" fill="none" xmlns="http://www.w3.org/2000/svg">
<path d="M27 10H5C4.44771 10 4 10.4477 4 11V15C4 15.5523 4.44771 16 5 16H27C27.5523 16 28 15.5523 28 15V11C28 10.4477 27.5523 10 27 10Z" stroke="#FD8E1F" stroke-width="2" stroke-linecap="round" stroke-linejoin="round"/>
<path d="M26 16V25C26 25.2652 25.8946 25.5196 25.7071 25.7071C25.5196 25.8946 25.2652 26 25 26H7C6.73478 26 6.48043 25.8946 6.29289 25.7071C6.10536 25.5196 6 25.2652 6 25V16" stroke="#FD8E1F" stroke-width="2" stroke-linecap="round" stroke-linejoin="round"/>
<path d="M16 10V26" stroke="#FD8E1F" stroke-width="2" stroke-linecap="round" stroke-linejoin="round"/>
<path d="M21.6569 8.58496C20.2426 9.99917 16 9.99917 16 9.99917C16 9.99917 16 5.75653 17.4142 4.34232C17.9769 3.78024 18.7398 3.46462 19.5352 3.46484C20.3305 3.46507 21.0932 3.78112 21.6556 4.34352C22.218 4.90592 22.5341 5.66864 22.5343 6.46399C22.5346 7.25934 22.2189 8.02224 21.6569 8.58496V8.58496Z" stroke="#FD8E1F" stroke-width="2" stroke-linecap="round" stroke-linejoin="round"/>
<path d="M10.3433 8.58496C11.7575 9.99917 16.0001 9.99917 16.0001 9.99917C16.0001 9.99917 16.0001 5.75653 14.5859 4.34232C14.0232 3.78024 13.2603 3.46462 12.465 3.46484C11.6696 3.46507 10.9069 3.78112 10.3445 4.34352C9.7821 4.90592 9.46605 5.66864 9.46582 6.46399C9.46559 7.25934 9.78121 8.02224 10.3433 8.58496V8.58496Z" stroke="#FD8E1F" stroke-width="2" stroke-linecap="round" stroke-linejoin="round"/>
<path opacity="0.2" d="M26 16V25C26 25.2652 25.8946 25.5196 25.7071 25.7071C25.5196 25.8946 25.2652 26 25 26H7C6.73478 26 6.48043 25.8946 6.29289 25.7071C6.10536 25.5196 6 25.2652 6 25V16H26Z" fill="#FD8E1F"/>
</svg>
