<svg width="32" height="32" viewBox="0 0 32 32" fill="none" xmlns="http://www.w3.org/2000/svg">
<path opacity="0.2" d="M25 19.1066L20.4004 23.7063C20.2783 23.8284 20.1266 23.9168 19.9602 23.9629C19.7938 24.009 19.6182 24.0112 19.4507 23.9693L12.2061 22.1582C12.0702 22.1242 11.943 22.062 11.8326 21.9758L5 16.6329L9.0718 8.97266L15.4868 7.10247C15.716 7.03566 15.9614 7.05303 16.1789 7.15143L20.5 9.10663H17.9142C17.7829 9.10663 17.6529 9.13249 17.5315 9.18275C17.4102 9.233 17.3 9.30666 17.2071 9.39952L12.3153 14.2913C12.214 14.3926 12.1356 14.5145 12.0855 14.6488C12.0354 14.783 12.0148 14.9264 12.0249 15.0693C12.0351 15.2122 12.0758 15.3513 12.1444 15.4771C12.213 15.6029 12.3078 15.7125 12.4224 15.7984L13.1 16.3066C13.7924 16.8259 14.6345 17.1066 15.5 17.1066C16.3655 17.1066 17.2076 16.8259 17.9 16.3066L19.5 15.1066L25 19.1066Z" fill="#E34444"/>
<path d="M30.0897 15.223L27 16.7678L23 9.10756L26.1212 7.54698C26.3557 7.42973 26.6268 7.40926 26.8763 7.48998C27.1257 7.5707 27.3335 7.74614 27.4548 7.97854L30.5289 13.8657C30.5904 13.9834 30.6278 14.1122 30.639 14.2445C30.6501 14.3768 30.6348 14.5101 30.5939 14.6364C30.553 14.7628 30.4874 14.8797 30.4008 14.9804C30.3143 15.0811 30.2085 15.1636 30.0897 15.223V15.223Z" stroke="#E34444" stroke-width="2" stroke-linecap="round" stroke-linejoin="round"/>
<path d="M4.99991 16.635L1.91021 15.0902C1.79143 15.0308 1.68567 14.9483 1.5991 14.8476C1.51253 14.7469 1.44688 14.63 1.406 14.5036C1.36511 14.3773 1.3498 14.244 1.36096 14.1117C1.37212 13.9794 1.40953 13.8506 1.471 13.7329L4.54511 7.84573C4.66646 7.61333 4.87422 7.43789 5.12366 7.35717C5.3731 7.27645 5.64426 7.29692 5.87875 7.41417L8.99991 8.97475L4.99991 16.635Z" stroke="#E34444" stroke-width="2" stroke-linecap="round" stroke-linejoin="round"/>
<path d="M27 16.7668L25 19.1065L20.4004 23.7062C20.2783 23.8283 20.1266 23.9167 19.9602 23.9628C19.7938 24.0089 19.6182 24.0111 19.4507 23.9692L12.2061 22.1581C12.0702 22.1241 11.943 22.0619 11.8326 21.9757L5 16.6328" stroke="#E34444" stroke-width="2" stroke-linecap="round" stroke-linejoin="round"/>
<path d="M25.0001 19.1094L19.5001 15.1094L17.9001 16.3094C17.2077 16.8287 16.3655 17.1094 15.5001 17.1094C14.6346 17.1094 13.7924 16.8287 13.1001 16.3094L12.4225 15.8012C12.3078 15.7152 12.213 15.6056 12.1445 15.4798C12.0759 15.354 12.0351 15.215 12.025 15.0721C12.0148 14.9292 12.0355 14.7857 12.0856 14.6515C12.1357 14.5173 12.214 14.3954 12.3154 14.2941L17.2072 9.40227C17.3 9.30941 17.4103 9.23575 17.5316 9.1855C17.6529 9.13524 17.7829 9.10937 17.9143 9.10938H23.0001" stroke="#E34444" stroke-width="2" stroke-linecap="round" stroke-linejoin="round"/>
<path d="M9.07178 8.97266L15.4868 7.10247C15.7159 7.03566 15.9614 7.05303 16.1789 7.15143L20.5 9.10663" stroke="#E34444" stroke-width="1.5" stroke-linecap="round" stroke-linejoin="round"/>
<path d="M14 26.6077L10.2326 25.6658C10.0797 25.6276 9.938 25.5538 9.81907 25.4504L7 23" stroke="#E34444" stroke-width="1.5" stroke-linecap="round" stroke-linejoin="round"/>
</svg>
